<?xml version="1.0" encoding="UTF-8" standalone="no"?>
<!-- Created with Inkscape (http://www.inkscape.org/) -->

<svg
   width="48"
   height="48"
   viewBox="0 0 48 48"
   version="1.1"
   id="svg1"
   inkscape:version="1.3 (0e150ed6c4, 2023-07-21)"
   sodipodi:docname="password_icon.svg"
   xmlns:inkscape="http://www.inkscape.org/namespaces/inkscape"
   xmlns:sodipodi="http://sodipodi.sourceforge.net/DTD/sodipodi-0.dtd"
   xmlns="http://www.w3.org/2000/svg"
   xmlns:svg="http://www.w3.org/2000/svg">
  <sodipodi:namedview
     id="namedview1"
     pagecolor="#ffffff"
     bordercolor="#000000"
     borderopacity="0.25"
     inkscape:showpageshadow="2"
     inkscape:pageopacity="0.0"
     inkscape:pagecheckerboard="0"
     inkscape:deskcolor="#d1d1d1"
     inkscape:document-units="px"
     showgrid="true"
     inkscape:zoom="16.388211"
     inkscape:cx="21.631403"
     inkscape:cy="24.621357"
     inkscape:window-width="1920"
     inkscape:window-height="1009"
     inkscape:window-x="-8"
     inkscape:window-y="-8"
     inkscape:window-maximized="1"
     inkscape:current-layer="layer1">
    <inkscape:grid
       id="grid1"
       units="px"
       originx="0"
       originy="0"
       spacingx="1"
       spacingy="1"
       empcolor="#0099e5"
       empopacity="0.30196078"
       color="#0099e5"
       opacity="0.14901961"
       empspacing="5"
       dotted="false"
       gridanglex="30"
       gridanglez="30"
       visible="true" />
  </sodipodi:namedview>
  <defs
     id="defs1" />
  <g
     inkscape:label="Layer 1"
     inkscape:groupmode="layer"
     id="layer1">
    <path
       id="path27"
       style="fill:#030303;stroke-width:0.85"
       d="M 23.5 0 A 9.4999278 4.8623133 0 0 0 22.4375 0.02734375 A 9.4999278 4.8623133 0 0 0 21.384766 0.12109375 A 9.4999278 4.8623133 0 0 0 20.359375 0.2734375 A 9.4999278 4.8623133 0 0 0 19.376953 0.48242188 A 9.4999278 4.8623133 0 0 0 18.443359 0.74609375 A 9.4999278 4.8623133 0 0 0 17.576172 1.0625 A 9.4999278 4.8623133 0 0 0 16.783203 1.4238281 A 9.4999278 4.8623133 0 0 0 16.074219 1.8320312 A 9.4999278 4.8623133 0 0 0 15.457031 2.2773438 A 9.4999278 4.8623133 0 0 0 14.941406 2.75 A 9.4999278 4.8623133 0 0 0 14.533203 3.2558594 A 9.4999278 4.8623133 0 0 0 14.236328 3.78125 A 9.4999278 4.8623133 0 0 0 14.083984 4.2636719 A 9.4999278 4.8623133 0 0 0 14.023438 4.75 A 9.4999278 4.8623133 0 0 0 14 4.8613281 L 14 17.304688 A 17 17 0 0 0 12.867188 18.152344 A 17 17 0 0 0 11.152344 19.867188 A 17 17 0 0 0 9.6992188 21.808594 A 17 17 0 0 0 8.5371094 23.9375 A 17 17 0 0 0 7.6894531 26.210938 A 17 17 0 0 0 7.1738281 28.580078 A 17 17 0 0 0 7 31 A 17 17 0 0 0 7.1738281 33.417969 A 17 17 0 0 0 7.6894531 35.789062 A 17 17 0 0 0 8.5371094 38.0625 A 17 17 0 0 0 9.6992188 40.191406 A 17 17 0 0 0 11.152344 42.132812 A 17 17 0 0 0 12.867188 43.847656 A 17 17 0 0 0 14.808594 45.300781 A 17 17 0 0 0 16.9375 46.462891 A 17 17 0 0 0 19.210938 47.310547 A 17 17 0 0 0 21.580078 47.826172 A 17 17 0 0 0 24 48 A 17 17 0 0 0 26.419922 47.826172 A 17 17 0 0 0 28.789062 47.310547 A 17 17 0 0 0 31.0625 46.462891 A 17 17 0 0 0 33.191406 45.300781 A 17 17 0 0 0 35.132812 43.847656 A 17 17 0 0 0 36.847656 42.132812 A 17 17 0 0 0 38.300781 40.191406 A 17 17 0 0 0 39.462891 38.0625 A 17 17 0 0 0 40.310547 35.789062 A 17 17 0 0 0 40.826172 33.417969 A 17 17 0 0 0 41 31 A 17 17 0 0 0 40.980469 30.166016 A 17 17 0 0 0 40.917969 29.333984 A 17 17 0 0 0 40.816406 28.505859 A 17 17 0 0 0 40.673828 27.683594 A 17 17 0 0 0 40.490234 26.869141 A 17 17 0 0 0 40.267578 26.064453 A 17 17 0 0 0 40.005859 25.271484 A 17 17 0 0 0 39.705078 24.494141 A 17 17 0 0 0 39.367188 23.730469 A 17 17 0 0 0 38.992188 22.986328 A 17 17 0 0 0 38.582031 22.259766 A 17 17 0 0 0 38.134766 21.554688 A 17 17 0 0 0 37.654297 20.873047 A 17 17 0 0 0 37.140625 20.214844 A 17 17 0 0 0 36.595703 19.583984 A 17 17 0 0 0 36.021484 18.978516 A 17 17 0 0 0 35.416016 18.404297 A 17 17 0 0 0 34.785156 17.857422 A 17 17 0 0 0 34.126953 17.345703 A 17 17 0 0 0 33.445312 16.865234 A 17 17 0 0 0 33 16.582031 L 33 4.9765625 A 9.4999278 4.8623133 0 0 0 33 4.9746094 A 9.4999278 4.8623133 0 0 0 33 4.9726562 A 9.4999278 4.8623133 0 0 0 33 4.9707031 A 9.4999278 4.8623133 0 0 0 33 4.96875 A 9.4999278 4.8623133 0 0 0 33 4.9667969 A 9.4999278 4.8623133 0 0 0 33 4.9648438 A 9.4999278 4.8623133 0 0 0 33 4.9628906 A 9.4999278 4.8623133 0 0 0 33 4.9609375 A 9.4999278 4.8623133 0 0 0 33 4.9589844 A 9.4999278 4.8623133 0 0 0 33 4.9570312 A 9.4999278 4.8623133 0 0 0 33 4.9550781 A 9.4999278 4.8623133 0 0 0 33 4.953125 A 9.4999278 4.8623133 0 0 0 33 4.9511719 A 9.4999278 4.8623133 0 0 0 33 4.9492188 A 9.4999278 4.8623133 0 0 0 33 4.9472656 A 9.4999278 4.8623133 0 0 0 33 4.9453125 A 9.4999278 4.8623133 0 0 0 33 4.9433594 A 9.4999278 4.8623133 0 0 0 33 4.9414062 A 9.4999278 4.8623133 0 0 0 33 4.9394531 A 9.4999278 4.8623133 0 0 0 33 4.9375 A 9.4999278 4.8623133 0 0 0 33 4.9355469 A 9.4999278 4.8623133 0 0 0 33 4.9335938 A 9.4999278 4.8623133 0 0 0 33 4.9316406 A 9.4999278 4.8623133 0 0 0 33 4.9296875 A 9.4999278 4.8623133 0 0 0 33 4.9277344 A 9.4999278 4.8623133 0 0 0 33 4.9257812 A 9.4999278 4.8623133 0 0 0 33 4.9238281 A 9.4999278 4.8623133 0 0 0 33 4.921875 A 9.4999278 4.8623133 0 0 0 33 4.9199219 A 9.4999278 4.8623133 0 0 0 33 4.9179688 A 9.4999278 4.8623133 0 0 0 33 4.9160156 A 9.4999278 4.8623133 0 0 0 33 4.9140625 A 9.4999278 4.8623133 0 0 0 33 4.9121094 A 9.4999278 4.8623133 0 0 0 33 4.9101562 A 9.4999278 4.8623133 0 0 0 33 4.9082031 A 9.4999278 4.8623133 0 0 0 33 4.90625 A 9.4999278 4.8623133 0 0 0 33 4.9042969 A 9.4999278 4.8623133 0 0 0 33 4.9023438 A 9.4999278 4.8623133 0 0 0 33 4.9003906 A 9.4999278 4.8623133 0 0 0 33 4.8984375 A 9.4999278 4.8623133 0 0 0 33 4.8964844 A 9.4999278 4.8623133 0 0 0 33 4.8945312 A 9.4999278 4.8623133 0 0 0 33 4.8925781 A 9.4999278 4.8623133 0 0 0 33 4.890625 A 9.4999278 4.8623133 0 0 0 33 4.8886719 A 9.4999278 4.8623133 0 0 0 33 4.8867188 A 9.4999278 4.8623133 0 0 0 33 4.8847656 A 9.4999278 4.8623133 0 0 0 33 4.8828125 A 9.4999278 4.8623133 0 0 0 33 4.8808594 A 9.4999278 4.8623133 0 0 0 33 4.8789062 A 9.4999278 4.8623133 0 0 0 33 4.8769531 A 9.4999278 4.8623133 0 0 0 33 4.875 A 9.4999278 4.8623133 0 0 0 33 4.8730469 A 9.4999278 4.8623133 0 0 0 33 4.8710938 A 9.4999278 4.8623133 0 0 0 33 4.8691406 A 9.4999278 4.8623133 0 0 0 33 4.8671875 A 9.4999278 4.8623133 0 0 0 33 4.8652344 A 9.4999278 4.8623133 0 0 0 33 4.8632812 A 9.4999278 4.8623133 0 0 0 33 4.8613281 A 9.4999278 4.8623133 0 0 0 32.990234 4.75 A 9.4999278 4.8623133 0 0 0 32.972656 4.5 A 9.4999278 4.8623133 0 0 0 32.892578 4.1367188 A 9.4999278 4.8623133 0 0 0 32.763672 3.78125 A 9.4999278 4.8623133 0 0 0 32.578125 3.4277344 A 9.4999278 4.8623133 0 0 0 32.341797 3.0839844 A 9.4999278 4.8623133 0 0 0 32.058594 2.75 A 9.4999278 4.8623133 0 0 0 31.728516 2.4296875 A 9.4999278 4.8623133 0 0 0 31.347656 2.125 A 9.4999278 4.8623133 0 0 0 30.925781 1.8320312 A 9.4999278 4.8623133 0 0 0 30.462891 1.5546875 A 9.4999278 4.8623133 0 0 0 29.960938 1.2988281 A 9.4999278 4.8623133 0 0 0 29.423828 1.0625 A 9.4999278 4.8623133 0 0 0 28.853516 0.84375 A 9.4999278 4.8623133 0 0 0 28.25 0.65039062 A 9.4999278 4.8623133 0 0 0 27.623047 0.48242188 A 9.4999278 4.8623133 0 0 0 26.96875 0.33398438 A 9.4999278 4.8623133 0 0 0 26.300781 0.21875 A 9.4999278 4.8623133 0 0 0 25.615234 0.12109375 A 9.4999278 4.8623133 0 0 0 24.914062 0.056640625 A 9.4999278 4.8623133 0 0 0 24.208984 0.013671875 A 9.4999278 4.8623133 0 0 0 23.5 0 z M 23.5 1.1875 A 8.3121414 4.5584181 0 0 1 24.121094 1.2011719 A 8.3121414 4.5584181 0 0 1 24.738281 1.2382812 A 8.3121414 4.5584181 0 0 1 25.351562 1.2988281 A 8.3121414 4.5584181 0 0 1 25.949219 1.3925781 A 8.3121414 4.5584181 0 0 1 26.533203 1.5019531 A 8.3121414 4.5584181 0 0 1 27.109375 1.6425781 A 8.3121414 4.5584181 0 0 1 27.65625 1.7949219 A 8.3121414 4.5584181 0 0 1 28.185547 1.9804688 A 8.3121414 4.5584181 0 0 1 28.681641 2.1855469 A 8.3121414 4.5584181 0 0 1 29.154297 2.4082031 A 8.3121414 4.5584181 0 0 1 29.589844 2.6445312 A 8.3121414 4.5584181 0 0 1 29.998047 2.9042969 A 8.3121414 4.5584181 0 0 1 30.365234 3.1777344 A 8.3121414 4.5584181 0 0 1 30.699219 3.4648438 A 8.3121414 4.5584181 0 0 1 30.986328 3.765625 A 8.3121414 4.5584181 0 0 1 31.236328 4.078125 A 8.3121414 4.5584181 0 0 1 31.441406 4.4023438 A 8.3121414 4.5584181 0 0 1 31.603516 4.7304688 A 8.3121414 4.5584181 0 0 1 31.71875 5.0644531 A 8.3121414 4.5584181 0 0 1 31.789062 5.4042969 A 8.3121414 4.5584181 0 0 1 31.802734 5.640625 A 8.3121414 4.5584181 0 0 1 31.8125 5.7480469 A 8.3121414 4.5584181 0 0 0 31.8125 5.7519531 A 8.3121414 4.5584181 0 0 0 31.8125 5.7558594 A 8.3121414 4.5584181 0 0 0 31.8125 5.7617188 A 8.3121414 4.5584181 0 0 0 31.8125 5.765625 A 8.3121414 4.5584181 0 0 0 31.8125 5.7695312 A 8.3121414 4.5584181 0 0 0 31.8125 5.7753906 A 8.3121414 4.5584181 0 0 0 31.8125 5.7792969 A 8.3121414 4.5584181 0 0 0 31.8125 5.7832031 A 8.3121414 4.5584181 0 0 0 31.8125 5.7890625 A 8.3121414 4.5584181 0 0 0 31.8125 5.7929688 A 8.3121414 4.5584181 0 0 0 31.8125 5.7988281 A 8.3121414 4.5584181 0 0 0 31.8125 5.8027344 A 8.3121414 4.5584181 0 0 0 31.8125 5.8066406 A 8.3121414 4.5584181 0 0 0 31.8125 5.8125 A 8.3121414 4.5584181 0 0 0 31.8125 5.8164062 A 8.3121414 4.5584181 0 0 0 31.8125 5.8203125 A 8.3121414 4.5584181 0 0 0 31.8125 5.8261719 A 8.3121414 4.5584181 0 0 0 31.8125 5.8300781 A 8.3121414 4.5584181 0 0 0 31.8125 5.8359375 A 8.3121414 4.5584181 0 0 0 31.8125 5.8398438 A 8.3121414 4.5584181 0 0 0 31.8125 5.84375 A 8.3121414 4.5584181 0 0 0 31.8125 5.8496094 A 8.3121414 4.5584181 0 0 0 31.8125 5.8535156 L 31.8125 15.246094 A 8.3121414 4.5584181 0 0 0 31.8125 15.251953 A 8.3121414 4.5584181 0 0 0 31.8125 15.255859 A 8.3121414 4.5584181 0 0 0 31.8125 15.259766 A 8.3121414 4.5584181 0 0 0 31.8125 15.265625 A 8.3121414 4.5584181 0 0 0 31.8125 15.269531 A 8.3121414 4.5584181 0 0 0 31.8125 15.275391 A 8.3121414 4.5584181 0 0 0 31.8125 15.279297 A 8.3121414 4.5584181 0 0 0 31.8125 15.283203 A 8.3121414 4.5584181 0 0 0 31.8125 15.289062 A 8.3121414 4.5584181 0 0 0 31.8125 15.292969 A 8.3121414 4.5584181 0 0 0 31.8125 15.298828 A 8.3121414 4.5584181 0 0 0 31.8125 15.302734 A 8.3121414 4.5584181 0 0 0 31.8125 15.308594 A 8.3121414 4.5584181 0 0 0 31.8125 15.3125 A 8.3121414 4.5584181 0 0 0 31.8125 15.316406 A 8.3121414 4.5584181 0 0 0 31.8125 15.322266 A 8.3121414 4.5584181 0 0 0 31.8125 15.326172 A 8.3121414 4.5584181 0 0 0 31.8125 15.332031 A 8.3121414 4.5584181 0 0 0 31.8125 15.335938 A 8.3121414 4.5584181 0 0 0 31.8125 15.339844 A 8.3121414 4.5584181 0 0 0 31.8125 15.345703 A 8.3121414 4.5584181 0 0 0 31.8125 15.349609 A 8.3121414 4.5584181 0 0 0 31.8125 15.355469 L 31.8125 15.90625 A 17 17 0 0 0 31.267578 15.630859 A 17 17 0 0 0 30.505859 15.292969 A 17 17 0 0 0 29.726562 14.994141 A 17 17 0 0 0 28.935547 14.732422 A 17 17 0 0 0 28.130859 14.509766 A 17 17 0 0 0 27.316406 14.326172 A 17 17 0 0 0 26.494141 14.183594 A 17 17 0 0 0 25.666016 14.082031 A 17 17 0 0 0 24.833984 14.019531 A 17 17 0 0 0 24 14 A 17 17 0 0 0 21.580078 14.171875 A 17 17 0 0 0 19.210938 14.6875 A 17 17 0 0 0 16.9375 15.535156 A 17 17 0 0 0 15.1875 16.492188 L 15.1875 15.246094 L 15.1875 5.7480469 A 8.3121414 4.5584181 0 0 1 15.205078 5.640625 A 8.3121414 4.5584181 0 0 1 15.396484 4.7304688 A 8.3121414 4.5584181 0 0 1 15.650391 4.2402344 A 8.3121414 4.5584181 0 0 1 16.013672 3.765625 A 8.3121414 4.5584181 0 0 1 16.462891 3.3203125 A 8.3121414 4.5584181 0 0 1 17.001953 2.9042969 A 8.3121414 4.5584181 0 0 1 17.623047 2.5234375 A 8.3121414 4.5584181 0 0 1 18.318359 2.1855469 A 8.3121414 4.5584181 0 0 1 19.074219 1.8886719 A 8.3121414 4.5584181 0 0 1 19.890625 1.6425781 A 8.3121414 4.5584181 0 0 1 20.753906 1.4433594 A 8.3121414 4.5584181 0 0 1 21.648438 1.2988281 A 8.3121414 4.5584181 0 0 1 22.568359 1.2148438 A 8.3121414 4.5584181 0 0 1 23.5 1.1875 z M 24 26.011719 A 4 3.9995925 0 0 1 24.392578 26.03125 A 4 3.9995925 0 0 1 24.78125 26.087891 A 4 3.9995925 0 0 1 25.162109 26.183594 A 4 3.9995925 0 0 1 25.53125 26.316406 A 4 3.9995925 0 0 1 25.884766 26.484375 A 4 3.9995925 0 0 1 26.222656 26.685547 A 4 3.9995925 0 0 1 26.537109 26.919922 A 4 3.9995925 0 0 1 26.828125 27.183594 A 4 3.9995925 0 0 1 27.091797 27.474609 A 4 3.9995925 0 0 1 27.326172 27.789062 A 4 3.9995925 0 0 1 27.527344 28.125 A 4 3.9995925 0 0 1 27.695312 28.480469 A 4 3.9995925 0 0 1 27.828125 28.849609 A 4 3.9995925 0 0 1 27.923828 29.230469 A 4 3.9995925 0 0 1 27.980469 29.619141 A 4 3.9995925 0 0 1 28 30.011719 A 4 3.9995925 0 0 1 27.861328 31.042969 A 4 3.9995925 0 0 1 27.460938 32.005859 A 4 3.9995925 0 0 1 26.826172 32.830078 A 4 3.9995925 0 0 1 26 33.464844 L 26 37.751953 A 2 1.9955008 0 0 0 26 37.753906 A 2 1.9955008 0 0 0 26 37.755859 A 2 1.9955008 0 0 0 26 37.757812 A 2 1.9955008 0 0 0 26 37.759766 A 2 1.9955008 0 0 0 26 37.761719 A 2 1.9955008 0 0 0 26 37.763672 A 2 1.9955008 0 0 0 26 37.765625 A 2 1.9955008 0 0 0 26 37.767578 A 2 1.9955008 0 0 0 26 37.769531 A 2 1.9955008 0 0 0 26 37.771484 A 2 1.9955008 0 0 0 26 37.773438 A 2 1.9955008 0 0 0 26 37.775391 A 2 1.9955008 0 0 0 26 37.777344 A 2 1.9955008 0 0 0 26 37.779297 A 2 1.9955008 0 0 0 26 37.78125 A 2 1.9955008 0 0 0 26 37.783203 A 2 1.9955008 0 0 0 26 37.785156 A 2 1.9955008 0 0 0 26 37.787109 A 2 1.9955008 0 0 0 26 37.789062 A 2 1.9955008 0 0 0 26 37.791016 A 2 1.9955008 0 0 0 26 37.794922 A 2 1.9955008 0 0 0 26 37.796875 A 2 1.9955008 0 0 0 26 37.798828 A 2 1.9955008 0 0 0 26 37.800781 A 2 1.9955008 0 0 0 26 37.802734 A 2 1.9955008 0 0 0 26 37.804688 A 2 1.9955008 0 0 0 26 37.806641 A 2 1.9955008 0 0 0 26 37.808594 A 2 1.9955008 0 0 0 26 37.810547 A 2 1.9955008 0 0 0 26 37.8125 A 2 1.9955008 0 0 0 26 37.814453 A 2 1.9955008 0 0 0 26 37.816406 A 2 1.9955008 0 0 0 26 37.818359 L 26 37.941406 A 2 1.9955008 0 0 0 25.998047 37.933594 A 2 1.9955008 0 0 1 25.998047 37.931641 A 2 1.9955008 0 0 1 25.998047 37.929688 A 2 1.9955008 0 0 1 25.998047 37.927734 A 2 1.9955008 0 0 1 25.998047 37.925781 A 2 1.9955008 0 0 1 25.998047 37.923828 A 2 1.9955008 0 0 1 25.998047 37.921875 A 2 1.9955008 0 0 1 25.998047 37.919922 A 2 1.9955008 0 0 1 25.998047 37.917969 A 2 1.9955008 0 0 1 25.998047 37.916016 A 2 1.9955008 0 0 1 25.998047 37.914062 A 2 1.9955008 0 0 1 25.998047 37.912109 A 2 1.9955008 0 0 1 25.998047 37.910156 A 2 1.9955008 0 0 1 25.998047 37.90625 A 2 1.9955008 0 0 1 25.998047 37.904297 A 2 1.9955008 0 0 1 25.998047 37.902344 A 2 1.9955008 0 0 1 25.998047 37.900391 A 2 1.9955008 0 0 1 25.998047 37.898438 A 2 1.9955008 0 0 1 25.998047 37.896484 A 2 1.9955008 0 0 1 25.998047 37.894531 A 2 1.9955008 0 0 0 25.996094 37.890625 A 2 1.9955008 0 0 1 25.96875 38.162109 A 2 1.9955008 0 0 1 25.878906 38.498047 A 2 1.9955008 0 0 1 25.732422 38.814453 A 2 1.9955008 0 0 1 25.53125 39.097656 A 2 1.9955008 0 0 1 25.285156 39.34375 A 2 1.9955008 0 0 1 25 39.544922 A 2 1.9955008 0 0 1 24.683594 39.691406 A 2 1.9955008 0 0 1 24.347656 39.78125 A 2 1.9955008 0 0 1 24 39.8125 A 2 1.9955008 0 0 1 23.652344 39.78125 A 2 1.9955008 0 0 1 23.316406 39.691406 A 2 1.9955008 0 0 1 23 39.544922 A 2 1.9955008 0 0 1 22.714844 39.34375 A 2 1.9955008 0 0 1 22.46875 39.097656 A 2 1.9955008 0 0 1 22.267578 38.814453 A 2 1.9955008 0 0 1 22.121094 38.498047 A 2 1.9955008 0 0 1 22.03125 38.162109 A 2 1.9955008 0 0 1 22.003906 37.908203 A 2 1.9955008 0 0 0 22 38 L 22 37.816406 L 22 33.464844 A 4 3.9995925 0 0 1 21.173828 32.830078 A 4 3.9995925 0 0 1 20.539062 32.005859 A 4 3.9995925 0 0 1 20.138672 31.044922 A 4 3.9995925 0 0 1 20 30.011719 A 4 3.9995925 0 0 1 20.136719 28.976562 A 4 3.9995925 0 0 1 20.535156 28.011719 A 4 3.9995925 0 0 1 21.171875 27.183594 A 4 3.9995925 0 0 1 22 26.548828 A 4 3.9995925 0 0 1 22.964844 26.148438 A 4 3.9995925 0 0 1 24 26.011719 z " />
  </g>
</svg>
