<?xml version="1.0" encoding="UTF-8" standalone="no"?>
<!-- Created with Inkscape (http://www.inkscape.org/) -->

<svg
   width="48"
   height="48"
   viewBox="0 0 15 15"
   version="1.1"
   id="svg1"
   inkscape:version="1.3 (0e150ed6c4, 2023-07-21)"
   sodipodi:docname="usert_icon.svg"
   xmlns:inkscape="http://www.inkscape.org/namespaces/inkscape"
   xmlns:sodipodi="http://sodipodi.sourceforge.net/DTD/sodipodi-0.dtd"
   xmlns="http://www.w3.org/2000/svg"
   xmlns:svg="http://www.w3.org/2000/svg">
  <sodipodi:namedview
     id="namedview1"
     pagecolor="#ffffff"
     bordercolor="#000000"
     borderopacity="0.25"
     inkscape:showpageshadow="2"
     inkscape:pageopacity="0.0"
     inkscape:pagecheckerboard="0"
     inkscape:deskcolor="#d1d1d1"
     inkscape:document-units="px"
     inkscape:lockguides="true"
     showguides="true"
     showgrid="true"
     inkscape:zoom="11.588215"
     inkscape:cx="25.629485"
     inkscape:cy="25.068571"
     inkscape:window-width="1920"
     inkscape:window-height="1009"
     inkscape:window-x="-8"
     inkscape:window-y="-8"
     inkscape:window-maximized="1"
     inkscape:current-layer="layer1">
    <inkscape:grid
       id="grid6"
       units="px"
       originx="0"
       originy="0"
       spacingx="0.26458334"
       spacingy="0.26458334"
       empcolor="#0099e5"
       empopacity="0.30196078"
       color="#0099e5"
       opacity="0.14901961"
       empspacing="5"
       dotted="false"
       gridanglex="30"
       gridanglez="30"
       visible="true"
       enabled="true" />
  </sodipodi:namedview>
  <defs
     id="defs1" />
  <g
     inkscape:label="Layer 1"
     inkscape:groupmode="layer"
     id="layer1">
    <circle
       style="fill:#000000;stroke-width:0.264583"
       id="path8"
       cx="6.3499999"
       cy="2.5135417"
       r="2.5135417" />
    <path
       d="M 6.3500001,5.2916667 A 6.3499999,7.0114584 0 0 0 5.5846721,5.3428264 6.3499999,7.0114584 0 0 0 4.8301962,5.4952719 6.3499999,7.0114584 0 0 0 4.0984579,5.7474529 6.3499999,7.0114584 0 0 0 3.398759,6.0947185 6.3499999,7.0114584 0 0 0 2.7429851,6.5329347 6.3499999,7.0114584 0 0 0 2.1394043,7.0548666 6.3499999,7.0114584 0 0 0 1.5968018,7.6537965 6.3499999,7.0114584 0 0 0 1.1239624,8.3199057 6.3499999,7.0114584 0 0 0 0.72760418,9.0449261 6.3499999,7.0114584 0 0 0 0.4128947,9.816972 6.3499999,7.0114584 0 0 0 0.18448487,10.625191 6.3499999,7.0114584 0 0 0 0.04650879,11.458216 6.3499999,7.0114584 0 0 0 0.03255615,11.71298 a 0.79374999,0.79374999 0 0 1 0.0062012,-0.03979 0.79374999,0.79374999 0 0 1 0.11265463,-0.221175 0.79374999,0.79374999 0 0 1 0.17569987,-0.1757 0.79374999,0.79374999 0 0 1 0.22117513,-0.112654 0.79374999,0.79374999 0 0 1 0.24546306,-0.03927 0.79374999,0.79374999 0 0 1 0.0956014,0.0062 0.79374999,0.79374999 0 0 1 0.0945679,0.01705 0.79374999,0.79374999 0 0 1 0.0914673,0.02842 0.79374999,0.79374999 0 0 1 0.087333,0.03927 0.79374999,0.79374999 0 0 1 0.082166,0.04961 0.79374999,0.79374999 0 0 1 0.075448,0.05943 0.79374999,0.79374999 0 0 1 0.067696,0.0677 0.79374999,0.79374999 0 0 1 0.058911,0.07545 0.79374999,0.79374999 0 0 1 0.049609,0.08217 0.79374999,0.79374999 0 0 1 0.039274,0.08733 0.79374999,0.79374999 0 0 1 0.028422,0.09147 0.79374999,0.79374999 0 0 1 0.01757,0.09405 0.79374999,0.79374999 0 0 1 5.168e-4,0.0062 0.79374999,0.79374999 0 0 1 0.00103,0.0057 0.79374999,0.79374999 0 0 1 5.168e-4,0.0062 0.79374999,0.79374999 0 0 1 5.167e-4,0.0057 0.79374999,0.79374999 0 0 1 5.168e-4,0.0062 0.79374999,0.79374999 0 0 1 5.168e-4,0.0057 0.79374999,0.79374999 0 0 1 5.167e-4,0.0062 0.79374999,0.79374999 0 0 1 0,0.0057 0.79374999,0.79374999 0 0 1 5.168e-4,0.0062 0.79374999,0.79374999 0 0 1 0,0.0057 0.79374999,0.79374999 0 0 1 5.168e-4,0.0062 0.79374999,0.79374999 0 0 1 0,0.0062 0.79374999,0.79374999 0 0 1 5.167e-4,0.0057 0.79374999,0.79374999 0 0 1 0,0.0062 0.79374999,0.79374999 0 0 1 0,0.0057 0.79374999,0.79374999 0 0 1 0,0.0062 0.79374999,0.79374999 0 0 1 0,0.0155 0.79374999,0.79374999 0 0 1 -5.167e-4,0.0155 0.79374999,0.79374999 0 0 1 -0.00103,0.0155 0.79374999,0.79374999 0 0 1 -0.00103,0.01602 0.79374999,0.79374999 0 0 1 -0.00103,0.0155 0.79374999,0.79374999 0 0 1 -0.00207,0.0155 0.79374999,0.79374999 0 0 1 -0.00155,0.0155 0.79374999,0.79374999 0 0 1 -0.00258,0.01499 0.79374999,0.79374999 0 0 1 -0.00258,0.0155 0.79374999,0.79374999 0 0 1 -0.00258,0.0155 0.79374999,0.79374999 0 0 1 -0.00362,0.01499 0.79374999,0.79374999 0 0 1 -0.0031,0.0155 0.79374999,0.79374999 0 0 1 -0.00413,0.01499 0.79374999,0.79374999 0 0 1 -0.00413,0.01499 0.79374999,0.79374999 0 0 1 -0.00413,0.01499 0.79374999,0.79374999 0 0 1 -0.00465,0.01499 0.79374999,0.79374999 0 0 1 -0.1126546,0.221175 0.79374999,0.79374999 0 0 1 -0.1756999,0.1757 A 0.79374999,0.79374999 0 0 1 1.0392131,12.673128 0.79374999,0.79374999 0 0 1 0.8691976,12.7 H 11.822018 a 0.80157238,0.79973631 0 0 1 -0.171566,-0.02687 0.80157238,0.79973631 0 0 1 -0.223242,-0.113688 0.80157238,0.79973631 0 0 1 -0.177767,-0.17725 0.80157238,0.79973631 0 0 1 -0.113688,-0.222725 0.80157238,0.79973631 0 0 1 -0.02325,-0.146761 6.412579,7.0643376 0 0 1 0.01705,-0.306958 0.80157238,0.79973631 0 0 1 0.0062,-0.04031 0.80157238,0.79973631 0 0 1 0.114204,-0.222725 0.80157238,0.79973631 0 0 1 0.177251,-0.177251 0.80157238,0.79973631 0 0 1 0.223242,-0.113171 0.80157238,0.79973631 0 0 1 0.248047,-0.03979 0.80157238,0.79973631 0 0 1 0.09664,0.0062 0.80157238,0.79973631 0 0 1 0.09508,0.01705 0.80157238,0.79973631 0 0 1 0.0925,0.02894 0.80157238,0.79973631 0 0 1 0.08837,0.03927 0.80157238,0.79973631 0 0 1 0.08268,0.05013 0.80157238,0.79973631 0 0 1 0.07648,0.05994 0.80157238,0.79973631 0 0 1 0.06821,0.06821 0.80157238,0.79973631 0 0 1 0.05943,0.07597 0.80157238,0.79973631 0 0 1 0.05013,0.08268 0.80157238,0.79973631 0 0 1 0.03979,0.08785 0.80157238,0.79973631 0 0 1 0.0186,0.05994 6.3499999,7.0114584 0 0 0 -0.01292,-0.230476 A 6.3499999,7.0114584 0 0 0 12.515515,10.625191 6.3499999,7.0114584 0 0 0 12.287105,9.816972 6.3499999,7.0114584 0 0 0 11.972396,9.0449261 6.3499999,7.0114584 0 0 0 11.576038,8.3199057 6.3499999,7.0114584 0 0 0 11.103198,7.6537965 6.3499999,7.0114584 0 0 0 10.560596,7.0548666 6.3499999,7.0114584 0 0 0 9.9570151,6.5329347 6.3499999,7.0114584 0 0 0 9.3012412,6.0947185 6.3499999,7.0114584 0 0 0 8.6015423,5.7474529 6.3499999,7.0114584 0 0 0 7.869804,5.4952719 6.3499999,7.0114584 0 0 0 7.1153281,5.3428264 6.3499999,7.0114584 0 0 0 6.3500001,5.2916667 Z"
       style="stroke-width:0.264583"
       id="path18" />
    <path
       d="M 0.01550293,12.017871 A 6.3499999,7.0114584 0 0 1 0.03255615,11.71298 0.79374999,0.79374999 0 0 0 0,11.918136 a 0.79374999,0.79374999 0 0 0 0.01550293,0.09973 z"
       style="stroke-width:0.264583"
       id="path15" />
    <path
       d="m 0.8691976,12.7 a 0.79374999,0.79374999 0 0 0 0.1700155,-0.02687 0.79374999,0.79374999 0 0 0 0.2211751,-0.112654 0.79374999,0.79374999 0 0 0 0.1756999,-0.1757 0.79374999,0.79374999 0 0 0 0.1126546,-0.221175 0.79374999,0.79374999 0 0 0 0.038757,-0.245463 0.79374999,0.79374999 0 0 0 -0.00568,-0.0956 0.79374999,0.79374999 0 0 0 -0.01757,-0.09405 0.79374999,0.79374999 0 0 0 -0.028422,-0.09147 0.79374999,0.79374999 0 0 0 -0.039274,-0.08733 0.79374999,0.79374999 0 0 0 -0.049609,-0.08217 0.79374999,0.79374999 0 0 0 -0.058911,-0.07545 0.79374999,0.79374999 0 0 0 -0.067696,-0.0677 0.79374999,0.79374999 0 0 0 -0.075448,-0.05943 0.79374999,0.79374999 0 0 0 -0.082166,-0.04961 0.79374999,0.79374999 0 0 0 -0.087333,-0.03927 0.79374999,0.79374999 0 0 0 -0.0914673,-0.02842 0.79374999,0.79374999 0 0 0 -0.0945679,-0.01705 0.79374999,0.79374999 0 0 0 -0.0956014,-0.0062 0.79374999,0.79374999 0 0 0 -0.24546306,0.03927 0.79374999,0.79374999 0 0 0 -0.22117513,0.112654 0.79374999,0.79374999 0 0 0 -0.17569987,0.1757 0.79374999,0.79374999 0 0 0 -0.11265463,0.221175 0.79374999,0.79374999 0 0 0 -0.0062012,0.03979 6.3499999,7.0114584 0 0 0 -0.01705322,0.304891 0.79374999,0.79374999 0 0 0 0.02325439,0.145728 0.79374999,0.79374999 0 0 0 0.11265463,0.221175 0.79374999,0.79374999 0 0 0 0.17569987,0.1757 0.79374999,0.79374999 0 0 0 0.22117513,0.112654 A 0.79374999,0.79374999 0 0 0 0.71830242,12.7 Z"
       style="stroke-width:0.264583"
       id="path13" />
    <path
       d="m 12.666411,11.688692 a 0.80157238,0.79973631 0 0 0 -0.0186,-0.05994 0.80157238,0.79973631 0 0 0 -0.03979,-0.08785 0.80157238,0.79973631 0 0 0 -0.05013,-0.08268 0.80157238,0.79973631 0 0 0 -0.05943,-0.07597 0.80157238,0.79973631 0 0 0 -0.06821,-0.06821 0.80157238,0.79973631 0 0 0 -0.07648,-0.05994 0.80157238,0.79973631 0 0 0 -0.08268,-0.05013 0.80157238,0.79973631 0 0 0 -0.08837,-0.03927 0.80157238,0.79973631 0 0 0 -0.0925,-0.02894 0.80157238,0.79973631 0 0 0 -0.09508,-0.01705 0.80157238,0.79973631 0 0 0 -0.09664,-0.0062 0.80157238,0.79973631 0 0 0 -0.248047,0.03979 0.80157238,0.79973631 0 0 0 -0.223242,0.113171 0.80157238,0.79973631 0 0 0 -0.177251,0.177251 0.80157238,0.79973631 0 0 0 -0.114204,0.222725 0.80157238,0.79973631 0 0 0 -0.0062,0.04031 6.412579,7.0643376 0 0 0 -0.01705,0.306958 0.80157238,0.79973631 0 0 0 0.02325,0.146761 0.80157238,0.79973631 0 0 0 0.113688,0.222725 0.80157238,0.79973631 0 0 0 0.177767,0.17725 0.80157238,0.79973631 0 0 0 0.223242,0.113688 0.80157238,0.79973631 0 0 0 0.171566,0.02687 h 0.152445 a 0.80157238,0.79973631 0 0 0 0.172083,-0.02687 0.80157238,0.79973631 0 0 0 0.223242,-0.113688 0.80157238,0.79973631 0 0 0 0.17725,-0.17725 0.80157238,0.79973631 0 0 0 0.113688,-0.222725 0.80157238,0.79973631 0 0 0 0.0047,-0.01499 0.80157238,0.79973631 0 0 0 0.0047,-0.01499 0.80157238,0.79973631 0 0 0 0.0041,-0.01499 0.80157238,0.79973631 0 0 0 0.0036,-0.0155 0.80157238,0.79973631 0 0 0 0.0036,-0.0155 0.80157238,0.79973631 0 0 0 0.0031,-0.01499 0.80157238,0.79973631 0 0 0 0.0021,-0.01033 6.3499999,7.0114584 0 0 0 -0.02015,-0.369487 z"
       style="stroke-width:0.266885"
       id="path20" />
    <path
       d="m 12.666411,11.688692 a 6.3499999,7.0114584 0 0 1 0.02015,0.369487 0.80157238,0.79973631 0 0 0 0.001,-0.0052 0.80157238,0.79973631 0 0 0 0.0026,-0.0155 0.80157238,0.79973631 0 0 0 0.0021,-0.0155 0.80157238,0.79973631 0 0 0 0.0021,-0.0155 0.80157238,0.79973631 0 0 0 0.0021,-0.01602 0.80157238,0.79973631 0 0 0 0.001,-0.0155 0.80157238,0.79973631 0 0 0 0.001,-0.0155 0.80157238,0.79973631 0 0 0 0.001,-0.01602 0.80157238,0.79973631 0 0 0 5.17e-4,-0.0155 0.80157238,0.79973631 0 0 0 0,-0.0155 0.80157238,0.79973631 0 0 0 0,-0.0057 0.80157238,0.79973631 0 0 0 0,-0.0057 0.80157238,0.79973631 0 0 0 0,-0.0057 0.80157238,0.79973631 0 0 0 -5.17e-4,-0.0057 0.80157238,0.79973631 0 0 0 0,-0.0057 0.80157238,0.79973631 0 0 0 0,-0.0057 0.80157238,0.79973631 0 0 0 -5.16e-4,-0.0057 0.80157238,0.79973631 0 0 0 0,-0.0057 0.80157238,0.79973631 0 0 0 -5.17e-4,-0.0057 0.80157238,0.79973631 0 0 0 -5.17e-4,-0.0057 0.80157238,0.79973631 0 0 0 -5.17e-4,-0.0057 0.80157238,0.79973631 0 0 0 -5.16e-4,-0.0057 0.80157238,0.79973631 0 0 0 -5.17e-4,-0.0057 0.80157238,0.79973631 0 0 0 -5.17e-4,-0.0057 0.80157238,0.79973631 0 0 0 -5.17e-4,-0.0057 0.80157238,0.79973631 0 0 0 -5.16e-4,-0.0057 0.80157238,0.79973631 0 0 0 -5.17e-4,-0.0057 0.80157238,0.79973631 0 0 0 -0.01809,-0.09457 0.80157238,0.79973631 0 0 0 -0.0098,-0.03256 z"
       style="stroke-width:0.266885"
       id="path19" />
    <path
       d="M 0.8691976,12.7 H 0.71830242 a 0.79374999,0.79374999 0 0 0 0.0754476,0.01189 A 0.79374999,0.79374999 0 0 0 0.8691976,12.7 Z"
       style="stroke-width:0.264583"
       id="path12" />
  </g>
</svg>
